<svg width="25" height="33" viewBox="0 0 25 33" fill="none" xmlns="http://www.w3.org/2000/svg">
    <path d="M4.51562 1.68621L3.1014 0.271996L0.272976 3.10042L1.68719 4.51464L4.51562 1.68621ZM21.4862 24.3136C22.2672 25.0947 23.5336 25.0947 24.3146 24.3136C25.0957 23.5326 25.0957 22.2662 24.3146 21.4852L21.4862 24.3136ZM1.68719 4.51464L21.4862 24.3136L24.3146 21.4852L4.51562 1.68621L1.68719 4.51464Z" fill="#121212"/>
    <path d="M24.8995 3.10034L24.8995 1.10035L20.8995 1.10035L20.8995 3.10034L24.8995 3.10034ZM22.8995 22.8993L22.8995 24.8993C24.0041 24.8993 24.8995 24.0039 24.8995 22.8993L22.8995 22.8993ZM3.10051 20.8993L1.10051 20.8993L1.10051 24.8993L3.10051 24.8993L3.10051 20.8993ZM20.8995 3.10034L20.8995 22.8993L24.8995 22.8993L24.8995 3.10034L20.8995 3.10034ZM22.8995 20.8993L3.10051 20.8993L3.10051 24.8993L22.8995 24.8993L22.8995 20.8993Z" fill="#121212"/>
</svg>
